<?xml version="1.0" encoding="UTF-8"?>
<svg id="Layer_1" data-name="Layer 1" xmlns="http://www.w3.org/2000/svg" viewBox="0 0 864 864">
  <defs>
    <style>
      .cls-1 {
        font-family: Nexa-ExtraBold, Nexa;
        font-size: 157.31px;
        font-weight: 700;
      }

      .cls-1, .cls-2 {
        fill: #4b2ff9;
      }

      .cls-3 {
        fill: #4b2ff8;
      }

      .cls-4 {
        letter-spacing: -.01em;
      }

      .cls-5 {
        letter-spacing: -.02em;
      }
    </style>
  </defs>
  <g>
    <path class="cls-2" d="m320.87,439.79c0,78.01-63.23,141.24-141.21,141.24-59.93,0-111.08-37.3-131.63-89.96h41.41c17.85,31.36,51.59,52.49,90.22,52.49,57.29,0,103.74-46.45,103.74-103.77s-46.45-103.74-103.74-103.74c-3.5,0-6.94.17-10.34.5v-37.6c3.44-.23,6.87-.37,10.34-.37,77.98,0,141.21,63.23,141.21,141.21Z"/>
    <path class="cls-2" d="m179.66,378.9c-33.63,0-60.93,27.26-60.93,60.89s27.29,60.93,60.93,60.93,60.89-27.26,60.89-60.93-27.26-60.89-60.89-60.89Zm0,84.99c-13.31,0-24.09-10.78-24.09-24.09s10.78-24.09,24.09-24.09,24.09,10.81,24.09,24.09-10.78,24.09-24.09,24.09Z"/>
    <path class="cls-3" d="m152.97,282.97v76.08h-37.77v-28.13c-17.05,8.44-31.46,21.45-41.61,37.4l36,20.82-19.09,33.03-31.16-18.02c-1.27,6.41-1.9,13.01-1.9,19.75,0,18.45,4.8,35.77,13.25,50.78H29.44c-6.11-15.75-9.44-32.87-9.44-50.78,0-61.86,39.81-114.45,95.2-133.53,11.95-4.14,24.62-6.67,37.77-7.41Z"/>
  </g>
  <text class="cls-1" transform="translate(346.74 413.78)"><tspan class="cls-4"><tspan x="0" y="0">Fifth </tspan></tspan><tspan class="cls-5" x="0" y="124.54">O</tspan><tspan class="cls-4" x="126.01" y="124.54">bject</tspan></text>
</svg>