<?xml version="1.0" encoding="UTF-8"?>
<svg id="Layer_1" data-name="Layer 1" xmlns="http://www.w3.org/2000/svg" viewBox="0 0 864 864">
  <defs>
    <style>
      .cls-1 {
        letter-spacing: -.01em;
      }

      .cls-2 {
        font-family: Nexa-ExtraBold, Nexa;
        font-size: 155.02px;
        font-weight: 700;
        stroke-width: 3.03px;
      }

      .cls-2, .cls-3 {
        fill: none;
        stroke: #4b2ff9;
        stroke-miterlimit: 10;
      }

      .cls-4 {
        letter-spacing: -.02em;
      }

      .cls-3 {
        stroke-width: 3.03px;
      }
    </style>
  </defs>
  <g>
    <path class="cls-3" d="m323.49,425.43c0,76.88-62.31,139.19-139.15,139.19-59.05,0-109.46-36.76-129.72-88.65h40.81c17.59,30.91,50.83,51.72,88.91,51.72,56.46,0,102.23-45.77,102.23-102.26s-45.77-102.23-102.23-102.23c-3.45,0-6.84.16-10.19.49v-37.06c3.39-.23,6.77-.36,10.19-.36,76.84,0,139.15,62.31,139.15,139.15Z"/>
    <path class="cls-3" d="m184.34,365.42c-33.14,0-60.04,26.86-60.04,60.01s26.9,60.04,60.04,60.04,60.01-26.86,60.01-60.04-26.86-60.01-60.01-60.01Zm0,83.75c-13.12,0-23.74-10.62-23.74-23.74s10.62-23.74,23.74-23.74,23.74,10.65,23.74,23.74-10.62,23.74-23.74,23.74Z"/>
    <path class="cls-3" d="m158.03,270.89v74.97h-37.22v-27.72c-16.8,8.32-31.01,21.14-41,36.86l35.48,20.52-18.81,32.55-30.71-17.76c-1.25,6.31-1.87,12.82-1.87,19.47,0,18.18,4.73,35.25,13.05,50.04h-40.64c-6.02-15.52-9.31-32.39-9.31-50.04,0-60.96,39.23-112.78,93.81-131.59,11.77-4.08,24.27-6.58,37.22-7.3Z"/>
  </g>
  <text class="cls-2" transform="translate(348.98 399.8)"><tspan class="cls-1"><tspan x="0" y="0">Fifth </tspan></tspan><tspan class="cls-4" x="0" y="122.73">O</tspan><tspan class="cls-1" x="124.17" y="122.73">bject</tspan></text>
</svg>